<?xml version="1.0" standalone="no"?>
<!DOCTYPE svg PUBLIC "-//W3C//DTD SVG 20010904//EN"
 "http://www.w3.org/TR/2001/REC-SVG-20010904/DTD/svg10.dtd">
<svg version="1.0" xmlns="http://www.w3.org/2000/svg"
 width="960.000000pt" height="960.000000pt" viewBox="0 0 960.000000 960.000000"
 preserveAspectRatio="xMidYMid meet">
<metadata>
Created by potrace 1.14, written by Peter Selinger 2001-2017
</metadata>
<g transform="translate(0.000000,960.000000) scale(0.100000,-0.100000)"
fill="#000000" stroke="none">
<path d="M2610 6943 c0 -742 3 -1507 7 -1700 l6 -353 236 -2 236 -3 3 -252 2
-253 -240 0 -240 0 0 -240 0 -240 725 0 725 0 0 -725 0 -725 -240 0 -240 0 -2
238 -3 237 -732 3 -733 2 0 240 0 240 -240 0 -240 0 2 -482 3 -483 968 -3 967
-2 0 -1220 0 -1220 1470 0 1470 0 0 1220 0 1220 720 0 720 0 0 245 0 245 -727
-2 -728 -3 -3 -237 -2 -238 -240 0 -240 0 0 235 0 235 -730 0 -730 0 0 490 0
490 485 0 485 0 0 240 0 240 -485 0 -485 0 0 -240 0 -240 -240 0 -240 0 -1 28
c-1 29 -1 401 0 440 l1 22 234 0 234 0 7 479 c4 263 4 484 1 490 -5 8 -215 11
-727 11 l-719 0 0 235 0 235 240 0 240 0 0 245 0 245 243 2 242 3 -2 733 -3
732 245 0 245 0 2 -247 3 -248 238 -3 237 -2 0 -240 0 -240 245 0 245 0 0
-245 0 -245 493 2 492 3 3 482 2 483 238 2 237 3 3 248 2 247 240 0 240 0 0
245 0 245 -2435 0 -2435 0 0 -1347z m3890 612 l0 -235 -723 0 -723 0 -1 235
-1 235 724 0 724 0 0 -235z m-970 -5355 l0 -250 -485 0 -485 0 0 250 0 250
485 0 485 0 0 -250z"/>
<path d="M6997 5363 c-4 -3 -7 -111 -7 -240 l0 -233 240 0 240 0 0 240 0 240
-233 0 c-129 0 -237 -3 -240 -7z"/>
<path d="M5788 4873 l-248 -3 0 -240 0 -240 238 -2 237 -3 3 -242 2 -243 485
0 485 0 0 240 0 240 -242 2 -243 3 -3 248 -2 247 -233 -2 c-127 -2 -343 -4
-479 -5z"/>
<path d="M2130 3650 l0 -240 240 0 240 0 0 240 0 240 -240 0 -240 0 0 -240z"/>
</g>
</svg>
